<?xml version="1.0" encoding="UTF-8" standalone="no"?>
<!-- Created with Inkscape (http://www.inkscape.org/) -->

<svg
   width="100"
   height="100"
   viewBox="0 0 100 100.00001"
   version="1.1"
   id="svg135"
   sodipodi:docname="Logo.svg"
   inkscape:version="1.2.1 (9c6d41e410, 2022-07-14)"
   inkscape:export-filename="Logo.png"
   inkscape:export-xdpi="96"
   inkscape:export-ydpi="96"
   xmlns:inkscape="http://www.inkscape.org/namespaces/inkscape"
   xmlns:sodipodi="http://sodipodi.sourceforge.net/DTD/sodipodi-0.dtd"
   xmlns="http://www.w3.org/2000/svg"
   xmlns:svg="http://www.w3.org/2000/svg">
  <sodipodi:namedview
     id="namedview137"
     pagecolor="#ffffff"
     bordercolor="#000000"
     borderopacity="0.25"
     inkscape:showpageshadow="2"
     inkscape:pageopacity="0.0"
     inkscape:pagecheckerboard="0"
     inkscape:deskcolor="#d1d1d1"
     inkscape:document-units="px"
     showgrid="false"
     inkscape:zoom="4.1776837"
     inkscape:cx="36.503482"
     inkscape:cy="50.027722"
     inkscape:window-width="1920"
     inkscape:window-height="1009"
     inkscape:window-x="-8"
     inkscape:window-y="-8"
     inkscape:window-maximized="1"
     inkscape:current-layer="layer1" />
  <defs
     id="defs132" />
  <g
     inkscape:label="レイヤー 1"
     inkscape:groupmode="layer"
     id="layer1">
    <path
       style="fill:#ffffff;stroke-width:3;stroke-opacity:1;stroke:#000000;fill-opacity:1"
       d="m 34.468861,86.41152 c -1.122128,0.242089 -2.479656,0.493711 -3.590506,0 C 30.513794,86.249493 30.257461,85.907603 29.920887,85.693419 28.166828,84.5772 26.337684,83.576387 24.65481,82.34228 23.936709,81.783756 23.218608,81.225233 22.500507,80.66671 22.26114,80.427343 22.044402,80.16297 21.782405,79.948609 21.164872,79.443354 20.45786,79.049125 19.867469,78.512406 19.572273,78.244047 19.404766,77.861416 19.149367,77.554938 18.05779,76.245045 16.90542,74.73403 16.037595,73.24633 c -0.596759,-1.023016 -0.905884,-2.290502 -1.436202,-3.351139 -0.287684,-0.575367 -0.724314,-1.07603 -0.957469,-1.67557 -0.32973,-0.847877 -0.456691,-1.76167 -0.718101,-2.633038 -0.217507,-0.725022 -0.559499,-1.414161 -0.718101,-2.154304 -0.08359,-0.390089 0.02654,-0.798773 0,-1.196835 0.286424,-1.259852 -0.369419,-2.388038 -0.478734,-3.590506 -0.122804,-1.350843 0,-2.712827 0,-4.069241 0,-2.679274 -0.0179,-6.207864 0.478734,-8.856582 0.121254,-0.646688 0.378687,-1.264631 0.478734,-1.914937 0.06066,-0.394306 -0.0397,-0.79987 0,-1.196836 0.125218,-1.252182 1.206442,-4.911885 1.67557,-5.984177 2.786831,-6.369901 -0.529624,1.979019 1.675569,-2.872405 0.208818,-0.459398 0.291319,-0.967665 0.478734,-1.436203 0.461875,-1.154686 1.249613,-2.113786 1.914937,-3.111772 0.891039,-1.336558 1.668702,-2.544092 2.633038,-3.829873 0.955227,-1.273636 1.498382,-2.695218 2.633038,-3.829874 0.126158,-0.126157 0.341673,-0.125149 0.478734,-0.239367 1.182935,-0.985779 2.047988,-2.243004 3.35114,-3.111772 1.039144,-0.692763 2.24738,-1.091227 3.351139,-1.67557 1.336472,-0.707544 2.8431,-1.696332 4.308608,-2.154303 4.862642,-1.519576 9.33676,-2.154304 14.362025,-2.154304 1.83478,0 4.387222,-0.289946 6.223544,0 0.822829,0.12992 1.570843,0.588181 2.393671,0.718101 0.709314,0.111997 1.453839,-0.15817 2.154304,0 4.941038,1.115718 9.867889,3.134773 13.883292,6.223544 1.508058,1.160045 2.639319,2.853486 3.829873,4.308608 0.328348,0.401315 1.787703,2.119797 2.154304,2.633038 1.092239,1.09086 1.530348,2.596556 2.393671,3.829874 0.194126,0.277323 0.543936,0.427826 0.718101,0.718101 0.312636,0.52106 0.44635,1.132066 0.718101,1.675569 0.436803,0.873606 1.150466,1.680582 1.436203,2.633038 0.09171,0.305697 -0.07741,0.647842 0,0.957469 0.165341,0.661363 0.542448,1.256237 0.718101,1.914937 0.145372,0.545143 0.08437,1.133084 0.239367,1.675569 0.166936,0.584275 0.525944,1.099098 0.718102,1.67557 0.322631,0.967893 0.866024,3.724976 0.957468,4.547975 0.258703,2.328329 0,4.836242 0,7.181012 0,2.900945 0.04264,5.510278 -0.478734,8.377849 -0.08682,0.477509 -0.07351,0.980085 -0.239367,1.436202 -0.158995,0.437235 -0.559107,0.7596 -0.718102,1.196836 -0.16586,0.456117 -0.0527,0.988198 -0.239367,1.436202 -0.221295,0.531108 -0.65592,0.946187 -0.957468,1.436203 -1.820552,2.958397 -2.58444,3.510113 -5.266076,5.74481 -0.780166,0.650138 -1.395273,1.47961 -2.154304,2.154304 -1.441373,1.28122 -3.060309,2.373325 -4.547975,3.590506 -0.698659,0.57163 -1.184882,1.383988 -1.914936,1.914937 -0.841346,0.611888 -1.729786,1.159425 -2.633038,1.67557 -0.219071,0.125183 -0.501743,0.109552 -0.718102,0.239367 -0.193517,0.11611 -0.298192,0.343327 -0.478734,0.478734 -0.428193,0.321144 -0.957468,0.478734 -1.436202,0.718101 -1.631993,0.815996 -3.292943,1.576382 -5.026709,2.154304 -1.011113,0.337037 -2.090866,0.411829 -3.111773,0.718101 -0.798095,0.239429 -1.566096,0.580172 -2.393671,0.718101 -0.70833,0.118056 -1.440594,-0.0793 -2.154303,0 -0.177323,0.0197 -0.302114,0.214136 -0.478735,0.239368 -1.636093,0.233727 -4.9258,0.111029 -6.702278,0 -1.809973,-0.113124 -3.508523,-0.467023 -5.266076,-0.718102 -1.242225,-0.17746 -2.594004,-0.03339 -3.829874,-0.239367 -0.78568,-0.130947 -0.153441,-0.400172 -0.957468,-0.239367 -0.64518,0.129036 -1.276624,0.319156 -1.914937,0.478734 z"
       id="path246" />
    <path
       style="fill:#ffffff;fill-opacity:1;stroke:#000000;stroke-width:3;stroke-opacity:1"
       d="m 46.91595,20.106836 c -0.05622,5.831051 0.239367,11.642392 0.239367,17.473797 0,5.345866 0,10.691731 0,16.037596 0,0.375913 -0.229626,1.924677 0,2.154303 0.465246,0.465246 1.264631,-0.378687 1.914937,-0.478734 5.071027,-0.780158 -2.228948,0.869623 2.872405,-0.239367 3.79779,-0.825606 7.5851,-1.745175 11.48962,-1.914937 0.956565,-0.04159 1.916261,0.05032 2.872406,0 1.439371,-0.07576 2.891387,-0.337012 4.308607,-0.478734 1.321587,-0.132158 2.738013,0 4.069241,0"
       id="path2188" />
  </g>
</svg>
